<?xml version="1.0" encoding="utf-8"?>
<!-- Generator: Adobe Illustrator 26.5.0, SVG Export Plug-In . SVG Version: 6.00 Build 0)  -->
<svg version="1.1" id="svg" xmlns="http://www.w3.org/2000/svg" xmlns:xlink="http://www.w3.org/1999/xlink" x="0px" y="0px"
	 viewBox="0 0 400 400" style="enable-background:new 0 0 400 400;" xml:space="preserve">
<style type="text/css">
	.st0{fill-rule:evenodd;clip-rule:evenodd;fill:#DEDEDE;}
	.st1{fill-rule:evenodd;clip-rule:evenodd;fill:#204E6B;}
	.st2{fill-rule:evenodd;clip-rule:evenodd;fill:#848A8C;}
	.st3{fill-rule:evenodd;clip-rule:evenodd;fill:#F98C08;}
	.st4{fill-rule:evenodd;clip-rule:evenodd;fill:#B4BDC0;}
</style>
<path class="st0" d="M359.7,400H40.3C18,400,0,382,0,359.7V40.3C0,18,18,0,40.3,0h319.4C382,0,400,18,400,40.3v319.4
	C400,382,382,400,359.7,400z"/>
<g id="svgg">
	<path id="path0" class="st1" d="M269.2,39.5c-2.8,8.8-11.8,21.8-19.1,27.7c-0.4,0.4-1.9,1.5-3.2,2.6c-11.6,9.8-25.6,17.6-53.3,29.8
		c-1.9,0.8-4.1,1.8-5.1,2.2c-0.9,0.4-5.2,2.2-9.5,4c-4.3,1.8-8.2,3.5-8.7,3.7c-0.5,0.2-1.8,0.7-2.9,1.1c-1.1,0.4-3.1,1.2-4.4,1.8
		c-1.4,0.6-3.9,1.7-5.7,2.4c-4.5,1.8-12.5,5.2-20.2,8.5c-18.7,8.1-30.8,17.2-34.3,25.7c-1,2.4-1.2,8.2-0.5,11.5c0.4,2,0.4,2,3.2,0.1
		c1.3-0.9,2.4-1.6,2.5-1.6c0.1,0,0.5-0.2,0.9-0.5c0.6-0.5,1.4-0.9,4-2.3c0.3-0.2,1-0.5,1.7-0.8c0.6-0.3,1.6-0.8,2.1-1
		c0.5-0.3,1.5-0.7,2.2-1.1c0.7-0.3,1.3-0.7,1.4-0.8c0-0.1,0.3-0.2,0.6-0.2c0.3,0,0.5-0.1,0.5-0.3c0-0.1,0.2-0.3,0.5-0.3
		c0.3,0,0.9-0.2,1.4-0.5c0.5-0.3,1.1-0.5,1.3-0.5c0.2,0,0.4-0.1,0.4-0.2c0-0.2,1.3-0.8,1.7-0.8c0.2,0,0.5-0.1,0.8-0.2
		c0.2-0.1,0.8-0.4,1.3-0.6c0.5-0.2,0.8-0.4,0.8-0.5c0-0.1,0.2-0.2,0.5-0.2c0.5,0,3.1-1.1,5.1-2.1c0.6-0.3,1.2-0.5,1.4-0.5
		c0.2,0,0.8-0.2,1.3-0.5c0.5-0.3,1.1-0.5,1.2-0.5c0.2,0,1-0.4,1.9-0.8s1.7-0.8,1.8-0.8c0.1,0,0.7-0.2,1.3-0.5
		c0.6-0.3,1.8-0.8,2.6-1.1c0.9-0.3,2.1-0.8,2.7-1.1c0.6-0.3,1.2-0.5,1.2-0.5s0.6-0.2,1.2-0.5c0.6-0.3,1.7-0.7,2.4-0.9
		c0.7-0.2,1.7-0.6,2.1-0.8c0.4-0.2,1.5-0.6,2.3-0.9c0.9-0.3,1.8-0.7,2.1-0.8c0.3-0.1,1.3-0.5,2.1-0.8c0.9-0.3,1.6-0.7,1.6-0.8
		s0.2-0.2,0.5-0.2c0.5,0,3.1-1,3.5-1.3c0.1-0.1,0.5-0.2,0.8-0.2s0.6-0.1,0.7-0.2c0.1-0.1,0.7-0.4,1.3-0.6c0.7-0.2,1.2-0.4,1.3-0.6
		c0.1-0.1,0.4-0.2,0.6-0.2c0.3,0,0.9-0.2,1.4-0.5c0.5-0.3,1.1-0.5,1.3-0.5c0.2,0,0.6-0.1,0.8-0.2c0.6-0.3,1.5-0.7,3.3-1.3
		c1.8-0.7,2.4-0.9,3.3-1.2c0.4-0.1,1.3-0.5,2.2-0.8c0.8-0.3,1.6-0.7,1.6-0.8c0.1-0.1,0.4-0.2,0.6-0.2c0.3,0,0.9-0.2,1.4-0.5
		c0.5-0.3,1.1-0.5,1.3-0.5c0.3,0,2.1-0.8,3.1-1.3c0.2-0.1,0.6-0.3,0.7-0.3c0.2,0,0.8-0.2,1.4-0.5c0.6-0.3,1.2-0.5,1.3-0.5
		c0.2,0,2.3-0.9,3.1-1.3c0.2-0.1,0.6-0.2,0.8-0.2c0.2,0,0.4-0.1,0.4-0.3c0-0.1,0.2-0.3,0.4-0.3c0.2,0,0.9-0.2,1.5-0.5
		c0.6-0.3,1.2-0.5,1.3-0.5c0.1,0,0.7-0.2,1.3-0.5c0.6-0.3,1.2-0.5,1.4-0.5c0.2,0,0.3-0.1,0.3-0.2s0.3-0.3,0.7-0.4
		c0.7-0.1,4.4-1.8,6.9-3.1c0.6-0.3,1.2-0.5,1.4-0.5c0.2,0,0.4-0.1,0.4-0.2c0-0.2,1.3-0.8,1.7-0.8c0.2,0,0.4-0.1,0.4-0.2
		c0.1-0.3,2.3-1.4,2.7-1.4c0.2,0,0.4-0.1,0.4-0.3c0-0.1,0.2-0.3,0.5-0.3c0.3,0,0.5-0.1,0.5-0.3c0-0.1,0.1-0.3,0.3-0.3
		c0.7,0,6.5-3.1,8.5-4.6c0.4-0.3,1-0.6,1.1-0.6c0.2,0,0.5-0.2,0.8-0.5c0.2-0.2,0.7-0.6,1-0.8c1.5-0.8,1.8-1,2.2-1.4
		c0.3-0.3,0.7-0.5,0.8-0.5c0.2,0,0.5-0.2,0.8-0.5c0.3-0.3,0.6-0.5,0.7-0.5c0.4,0,5-3.6,5.9-4.7c0.5-0.6,1.1-1.1,1.2-1.1
		c0.4,0,10.5-9.9,10.5-10.3c0-0.2,0.5-0.8,1-1.3c0.6-0.6,1-1.1,1-1.2c0-0.1,0.4-0.7,0.8-1.4c1.4-2,1.7-2.6,1.7-3
		c0-0.2,0.2-0.5,0.4-0.6c0.4-0.2,0.7-0.7,2.2-3.7c4.8-10,6.9-21.6,5.7-32.1C269.9,37.8,269.8,37.7,269.2,39.5 M280.7,86.6
		c0,0.2,0.3,0.6,0.6,0.9c0.4,0.3,0.6,0.7,0.6,0.8c0,0.1,0.4,1,0.9,2.1c0.5,1.1,1.1,2.3,1.3,2.8c0.2,0.5,0.4,0.8,0.5,0.8
		s0.2,0.2,0.2,0.4c0,0.2,0.1,0.6,0.2,0.8c1,2,1.3,2.8,1.3,3.1c0,0.2,0.2,0.8,0.5,1.3c0.3,0.5,0.5,1.1,0.5,1.4c0,0.3,0.1,0.6,0.3,0.7
		c0.1,0.1,0.3,0.4,0.3,0.7c0,0.3,0.1,0.7,0.2,0.8c0.1,0.1,0.4,1.1,0.7,2.2c0.2,1.1,0.5,2.4,0.7,2.9c1.9,7.9,2.1,10.1,2.2,18.8
		c0.1,6.6,0,8-0.4,9.9c-0.3,1.2-0.5,2.8-0.6,3.6c-0.3,2.1-1.5,8.2-2,9.3c-0.4,1-0.8,2.7-0.8,3.3c0,0.4-0.1,0.7-0.2,0.8
		c-0.1,0-0.6,1.3-1.1,2.7c-0.9,2.8-1,2.9-1.8,4.9c-0.3,0.7-0.5,1.5-0.5,1.8s-0.1,0.5-0.3,0.5c-0.1,0-0.3,0.2-0.3,0.4
		c0,0.2-0.2,0.8-0.5,1.3c-0.3,0.5-0.5,1.2-0.5,1.4s-0.1,0.5-0.3,0.5s-0.3,0.2-0.3,0.4c0,0.4-1.1,2.6-1.4,2.7c-0.1,0-0.2,0.2-0.2,0.3
		s-0.3,0.8-0.8,1.5c-1.3,2.1-2.4,4.1-2.7,4.8c-0.2,0.4-0.4,0.7-0.5,0.7s-0.2,0.2-0.2,0.5c0,0.3-0.1,0.5-0.2,0.5
		c-0.2,0-1.9,2.5-1.9,2.9c0,0.1-0.1,0.2-0.3,0.2c-0.1,0-0.4,0.3-0.6,0.7c-0.2,0.4-0.5,0.9-0.8,1.2c-0.3,0.3-0.5,0.6-0.5,0.8
		s-0.2,0.4-0.5,0.6c-0.3,0.2-0.8,0.8-1.2,1.3c-1,1.5-1.9,2.7-2.5,3.4c-0.3,0.3-0.8,1-1.1,1.6c-0.3,0.5-0.9,1.2-1.3,1.5
		c-0.4,0.3-0.6,0.7-0.6,0.8c0.1,0.2-0.8,1.1-1.8,2.1c-1.1,1-1.9,1.9-1.9,2.1c0,0.4-15.5,15.9-16.1,16.2c-0.5,0.2-3.2,2.6-3.2,2.8
		c0,0.3-2.9,3-3.2,3c-0.2,0-1.2,0.9-2.3,2.1c-1.1,1.1-2.1,2.1-2.3,2.1c-0.2,0-1,0.7-1.9,1.6c-0.8,0.9-1.6,1.6-1.8,1.6
		s-0.9,0.6-1.6,1.3c-0.7,0.7-1.3,1.3-1.5,1.3c-0.1,0-0.8,0.6-1.5,1.2s-1.5,1.4-1.9,1.6c-0.4,0.2-1.4,1.1-2.3,1.9
		c-0.9,0.8-1.7,1.5-1.8,1.5c-0.1,0-0.9,0.7-1.7,1.6c-0.8,0.9-1.6,1.6-1.7,1.6c-0.4,0-2.1,1.6-1.9,1.9c0.1,0.2,0,0.2-0.1,0.1
		c-0.2-0.1-0.4,0-0.5,0.2c-0.1,0.2-0.3,0.3-0.4,0.3c-0.1-0.1-1.2,0.9-2.5,2.1c-1.3,1.2-2.4,2.2-2.5,2.2c-0.3,0-3.5,2.9-6.2,5.6
		c-1.2,1.2-2.3,2.2-2.6,2.2c-0.6,0.1-3.7,2.9-7.9,7.2c-2,2-3.8,3.7-4,3.7c-0.5,0-7.8,7.3-7.8,7.6c0,0.2-0.1,0.3-0.3,0.2
		c-0.2,0-0.3,0.1-0.2,0.3c0.1,0.3-1.4,1.9-4.7,5c-2.6,2.5-4.8,4.8-4.8,4.9c0,0.2-0.6,0.9-1.3,1.7c-0.7,0.8-1.3,1.5-1.3,1.6
		c0,0.1-0.1,0.2-0.2,0.1c-0.1-0.1-0.4,0.2-0.6,0.6s-0.9,1.2-1.6,1.9c-0.7,0.6-1.3,1.3-1.3,1.5c0,0.2-0.4,0.7-0.8,1
		c-0.4,0.3-0.7,0.8-0.7,1s-0.6,0.9-1.3,1.6c-0.7,0.7-1.3,1.3-1.3,1.5c0,0.2-0.2,0.5-0.5,0.8s-0.5,0.7-0.5,0.9c0,0.2-0.2,0.6-0.5,0.8
		c-0.3,0.2-0.8,0.8-1.1,1.4c-0.3,0.5-0.6,1-0.8,1c-0.1,0-0.2,0.2-0.2,0.4c0,0.2-0.3,0.7-0.7,1.1c-0.8,0.7-2.4,3.2-3.3,4.8
		c-0.3,0.5-0.6,1.1-0.8,1.3c-0.2,0.2-0.7,1.2-1.2,2.1c-0.5,0.9-1.1,1.9-1.3,2.2c-0.2,0.3-0.5,0.7-0.5,0.8s-0.1,0.3-0.3,0.3
		s-0.3,0.2-0.3,0.4c0,0.5-0.5,1.3-1.1,2c-0.2,0.3-0.6,0.9-0.7,1.3c-0.2,0.5-0.4,1-0.6,1.3c-0.1,0.3-0.7,1.3-1.3,2.4
		c-0.6,1-1,2.1-1,2.4c0,0.3-0.1,0.5-0.3,0.5c-0.1,0-0.3,0.2-0.3,0.5c0,0.3-0.1,0.6-0.2,0.7c-0.1,0.1-0.4,0.6-0.5,1.1s-0.5,1.4-0.8,2
		c-0.4,0.9-1.4,3.9-2.3,6.8c-0.6,1.9-1.3,4.9-1.8,7.6c-0.5,2.7-0.7,3.6-1.3,7.5c-0.3,1.9-0.4,11-0.1,11.4c0.1,0.2,0.4-0.6,0.8-1.8
		c3.7-12.5,17.4-24.6,37.6-33.2c1.1-0.5,2.2-0.9,2.5-1.1c0.9-0.4,11.1-4.4,11.2-4.4c0.1,0,0.5-0.2,1-0.4c0.8-0.4,12.6-4.3,28.4-9.5
		c7.9-2.6,16.1-5.5,19.8-6.9c1-0.4,2.8-1.1,3.9-1.5c1.8-0.7,3.6-1.4,8.5-3.6c37.8-16.9,62.3-48.7,68.5-89.1
		c6-38.9-6.7-83.6-33.9-119.5C280.7,86.2,280.7,86.3,280.7,86.6 M195.4,173.5c-2.1,0.1-4.7,0.3-5.7,0.5c-1,0.2-2.6,0.4-3.7,0.5
		c-1,0.1-2.4,0.4-3,0.5c-0.6,0.1-1.7,0.3-2.4,0.4c-0.7,0.1-1.4,0.2-1.6,0.3c-0.2,0.1-1.3,0.3-2.4,0.5c-1.1,0.2-2.6,0.5-3.1,0.6
		c-0.6,0.1-2.5,0.5-4.3,0.9c-1.8,0.4-4.5,1-6,1.4c-1.5,0.4-3.4,0.9-4.3,1.1c-0.9,0.2-2.7,0.6-4,1c-1.4,0.4-3.1,0.8-3.9,1
		c-2.4,0.6-7.4,2-7.7,2.2c-0.1,0.1-0.6,0.3-1,0.3c-0.4,0.1-1.2,0.3-1.7,0.4c-0.5,0.1-1.8,0.5-2.9,0.8c-1.1,0.3-3.9,1.2-6.4,2.1
		s-4.6,1.6-4.8,1.7c-21.5,6.7-30.4,13.9-30.2,24.7c0.1,4.7,3.1,11.3,5.8,12.8c1.2,0.6,1.2,0.6,0.6-1.3c-2.9-8.2-0.3-15.8,7.3-21.7
		c0.6-0.4,1.2-0.9,1.4-1.1c3.9-3.3,15.6-6.4,25.4-6.7c14.3-0.4,21.2,2.8,23.3,11c1.3,5.1-1.2,16.2-7.2,31.6
		c-0.5,1.4-1.3,3.5-1.8,4.8c-0.5,1.3-1.5,3.9-2.2,5.9c-3.6,9.3-8.5,24.2-10.7,32.4c-0.5,1.7-1.1,3.9-1.3,4.8
		c-1.5,5.3-4.1,17.6-4.8,22.4c-0.2,1.6-0.5,3.6-0.7,4.4c-1.4,8.2-1.9,26.2-1,33.7l0.4,3.1l0.1-3.4c0.1-3.8,0.1-3.9,0.5-6.8
		c1-7.1,1.3-8.8,2.6-15c0.3-1.2,0.6-2.8,0.7-3.5c0.1-0.7,0.3-1.5,0.4-1.7c0.3-0.5,1.1-3.3,1.8-5.8c1.4-5.1,4.9-15.3,6.3-18.4
		c0.3-0.6,0.5-1.3,0.5-1.4c0-0.2,0.1-0.5,0.2-0.6c0.1-0.1,0.6-1.2,1.1-2.5c0.5-1.2,1-2.3,1.1-2.5c0.1-0.1,0.2-0.5,0.2-0.7
		c0-0.4,0.4-1.4,0.8-1.8c0.1-0.1,0.5-1,1-2.1c0.5-1.1,1.3-2.9,1.9-4s1-2.2,1-2.4c0-0.2,0.1-0.3,0.3-0.3s0.3-0.2,0.3-0.5
		c0-0.3,0.1-0.5,0.3-0.5s0.3-0.2,0.3-0.5c0-0.3,0.1-0.5,0.3-0.5c0.1,0,0.3-0.2,0.3-0.5c0-0.3,0.1-0.5,0.3-0.5c0.1,0,0.3-0.2,0.3-0.5
		c0-0.3,0.2-0.7,0.5-1.1s0.5-0.8,0.5-1c0-0.2,0.2-0.6,0.5-0.8c0.3-0.3,0.9-1.3,1.4-2.3c0.5-1,1.3-2.5,1.9-3.4c0.5-0.9,1-1.8,1-2
		c0-0.2,0.1-0.4,0.2-0.4s0.6-0.8,1.1-1.8c0.5-1,1-1.8,1-1.9c0.4-0.3,1.8-2.9,1.8-3.3c0-0.2,0.1-0.4,0.2-0.4c0.1,0,0.3-0.2,0.4-0.5
		c0.1-0.3,0.6-1,1.1-1.6c0.5-0.6,0.9-1.4,0.9-1.6c0-0.3,0.1-0.5,0.3-0.5c0.1,0,0.3-0.2,0.3-0.4c0-0.2,0.2-0.6,0.5-0.8
		c0.6-0.5,1-1.2,1.4-2.2c0.2-0.4,0.4-0.7,0.5-0.7s0.2-0.2,0.2-0.5c0-0.3,0.2-0.6,0.5-0.8c0.3-0.2,0.5-0.6,0.5-0.8
		c0-0.3,0.1-0.5,0.2-0.5c0.3,0,2.3-3.1,2.4-3.7c0-0.2,0.3-0.5,0.5-0.7c0.2-0.2,0.5-0.5,0.5-0.8c0-0.2,0.2-0.6,0.5-0.8
		c0.3-0.2,1-1.2,1.6-2.1s1.6-2.4,2.1-3.2c0.6-0.8,1-1.6,1.1-1.8c0-0.2,0.2-0.5,0.5-0.8c0.2-0.3,0.4-0.6,0.4-0.7
		c0-0.1,0.3-0.4,0.6-0.8c0.3-0.3,0.6-0.7,0.6-0.9c0-0.2,0.2-0.5,0.5-0.7s0.5-0.5,0.5-0.7c0-0.2,0.3-0.6,0.6-0.8
		c0.3-0.3,0.9-1,1.2-1.6c0.3-0.6,0.8-1.3,1-1.5c0.2-0.2,0.4-0.5,0.4-0.6c0-0.2,0.4-0.7,0.8-1.2c0.4-0.5,0.8-1,0.8-1.2
		c0-0.2,0.1-0.4,0.2-0.4c0.3-0.1,1.4-1.7,1.4-2.1c0-0.2,0.4-0.8,1-1.5c1.3-1.5,2.6-3.6,2.6-3.9c0-0.1,0.1-0.3,0.2-0.3
		c0.3-0.1,3.4-4.8,3.4-5c0-0.1,0.4-0.8,1-1.5c1.1-1.5,1.8-2.7,2.1-3.4c0.1-0.3,0.3-0.5,0.4-0.5c0.1,0,0.2-0.2,0.2-0.5
		c0-0.3,0.1-0.5,0.3-0.5c0.1,0,0.4-0.3,0.6-0.7c0.2-0.4,0.4-0.8,0.5-0.8c0.2-0.2,0.8-1.1,1.4-2.3c0.3-0.6,0.7-1.2,0.8-1.3
		c0.1,0,0.2-0.3,0.2-0.6s0.1-0.5,0.2-0.6c0.1,0,0.4-0.4,0.6-0.8c0.8-1.6,2.9-5.8,3.1-6.4c0.1-0.3,0.4-0.8,0.5-1.2
		c1.8-4,2-8.4,0.5-10.4C205.7,173.5,203.8,173.1,195.4,173.5"/>
	<path id="path2" class="st2" d="M250.3,66.8l-0.7,0.7l0.8-0.6c0.5-0.3,0.8-0.6,0.8-0.7C251.3,66,251,66.2,250.3,66.8 M262.3,76.8
		c-0.2,0.1-0.3,0.4-0.2,0.6c0.1,0.2,0.2,0.2,0.4-0.2C262.8,76.5,262.8,76.5,262.3,76.8 M267.8,79.2c-0.1,0.3-0.3,0.6-0.3,0.7
		c-0.1,0.1-0.5,0.8-0.9,1.6c-0.4,0.8-1.2,2.1-1.8,2.9s-1.5,2-1.9,2.7c-0.5,0.7-1.2,1.7-1.6,2.1c-0.4,0.4-0.8,0.9-0.8,1.1
		c-0.3,0.8-9.7,10.1-11.5,11.3c-0.5,0.4-1,0.7-1,0.8c0,0.1-0.1,0.2-0.3,0.2c-0.5,0-4.7,3.4-4.5,3.7c0.1,0.1-0.1,0.2-0.4,0.2
		s-0.5,0.1-0.5,0.3c0,0.1-0.2,0.3-0.5,0.3c-0.3,0-0.5,0.1-0.6,0.2c-0.1,0.2-1.1,0.8-4.2,2.6c-0.6,0.3-1.7,1-2.4,1.5
		c-0.7,0.5-2.1,1.3-3.2,1.8c-1,0.5-2,1.1-2.2,1.3c-0.2,0.2-0.5,0.4-0.7,0.4c-0.2,0-0.4,0.1-0.4,0.2c0,0.2-1.3,0.8-1.7,0.8
		c-0.2,0-0.3,0.1-0.3,0.3c0,0.1-0.1,0.3-0.3,0.3s-1.7,0.7-3.4,1.5c-1.7,0.8-3.9,1.9-4.9,2.4c-1,0.5-2.8,1.3-4,1.9
		c-3.2,1.5-4.2,1.9-5.2,2.3c-0.5,0.2-1.4,0.5-2,0.8c-0.6,0.3-1.2,0.5-1.4,0.5s-0.5,0.1-0.7,0.3c-0.2,0.1-2.2,1-4.3,1.8
		c-2.1,0.9-4,1.7-4.2,1.8c-0.2,0.1-0.8,0.4-1.3,0.5c-1,0.3-2.2,0.8-3.6,1.5c-0.4,0.2-0.9,0.4-1,0.4s-1.4,0.5-2.9,1
		c-1.5,0.6-4.2,1.6-6.2,2.4c-3.4,1.3-5.4,2.1-6.3,2.6c-0.2,0.1-0.7,0.2-0.9,0.2s-0.6,0.1-0.6,0.2c-0.2,0.2-0.8,0.4-4,1.5
		c-0.7,0.3-1.4,0.6-1.5,0.7c-0.1,0.1-0.4,0.2-0.6,0.2c-0.3,0-1.5,0.5-6.1,2.4c-1.2,0.5-1.7,0.7-3.3,1.2c-0.9,0.3-1.8,0.6-2.1,0.8
		c-0.3,0.1-1.2,0.5-2,0.8c-2.5,1-3.1,2-4.4,8.4c-0.6,2.8-1.1,5.3-1.1,5.7c0,0.4-0.1,0.7-0.2,0.8c-0.1,0.1-0.3,0.8-0.4,1.7
		c-0.4,2-0.7,3.8-0.9,4.5c-0.1,0.3-0.1,0.6,0.1,0.7c0.2,0.1,3.8-1,5.1-1.6c0.3-0.1,1.5-0.6,2.6-0.9c1.1-0.4,2.3-0.8,2.6-1
		c0.3-0.2,1.3-0.6,2.2-0.9c0.9-0.3,2-0.7,2.5-0.9c0.4-0.2,1.1-0.4,1.4-0.5c0.4-0.1,0.9-0.3,1.2-0.4c2.2-0.9,3.5-1.4,3.8-1.6
		c0.2-0.1,0.6-0.2,0.7-0.2c0.1,0,0.8-0.2,1.4-0.5c0.6-0.3,2-0.8,3.1-1.1c1.1-0.3,2.4-0.8,3-1.1s1.4-0.5,1.7-0.6
		c0.4-0.1,1-0.3,1.4-0.5c0.4-0.2,1.2-0.5,1.8-0.7c0.6-0.2,1.7-0.7,2.5-1c0.8-0.4,1.9-0.8,2.3-0.9c0.5-0.1,1.2-0.3,1.5-0.5
		c0.4-0.2,1-0.4,1.4-0.5c0.4-0.1,1.4-0.5,2.1-0.8c0.8-0.3,1.6-0.6,1.8-0.6c0.2,0,0.7-0.2,1.1-0.4c0.4-0.2,1.5-0.7,2.5-1
		c1-0.3,2.4-0.9,3.2-1.2c0.8-0.3,1.9-0.8,2.5-1c0.6-0.2,1.4-0.6,1.9-0.8c0.5-0.2,1.2-0.5,1.7-0.7c0.5-0.2,1.2-0.5,1.6-0.5
		c0.4-0.1,0.8-0.3,0.9-0.4c0.1-0.1,0.3-0.2,0.5-0.2c0.3,0,2.2-0.7,3.3-1.3c0.2-0.1,0.6-0.2,0.7-0.2s0.8-0.2,1.4-0.5
		c0.6-0.3,1.9-0.8,2.8-1.2c2.5-1.1,4.5-2,4.9-2.4c0.2-0.2,1.2-0.6,2.1-0.9c3-1,11.1-5,14.3-7c2-1.2,2.6-1.6,3-1.6
		c0.2,0,0.4-0.1,0.4-0.3c0-0.1,0.2-0.3,0.4-0.3s0.9-0.4,1.5-0.8c0.6-0.4,1.2-0.8,1.3-0.8c0.1,0,0.8-0.4,1.5-0.9
		c0.7-0.5,1.8-1.2,2.4-1.6c0.7-0.4,1.5-1,2-1.5c0.4-0.4,0.9-0.8,1-0.8c0.4,0,4-2.7,5.4-4.1c0.7-0.6,1.3-1.2,1.4-1.2
		c0.1,0,1.9-1.6,3.9-3.6l3.6-3.6l0.4,0.8c0.9,2.1,0.6,19.4-0.3,22.8c-0.2,0.7-0.5,1.9-0.7,2.8c-0.2,0.9-0.6,2.3-0.8,3.3
		c-0.5,1.7-1.3,4.6-1.8,6.2c-0.1,0.5-0.5,1.4-0.8,2c-0.3,0.6-0.5,1.2-0.5,1.3c0,0.1-0.3,0.9-0.8,1.8c-0.4,0.9-0.8,1.8-0.8,2
		c0,0.3-0.2,0.8-0.5,1.2c-0.4,0.6-1.7,3.1-2.8,5.5c-0.2,0.5-0.8,1.6-1.3,2.5c-0.5,0.9-1.1,2-1.4,2.5c-0.2,0.5-0.5,1-0.6,1
		c-0.1,0-0.2,0.2-0.2,0.4c0,0.2-0.2,0.5-0.5,0.8c-0.7,0.7-2.7,3.7-2.7,4c0,0.1-0.2,0.5-0.6,0.7c-0.3,0.3-1,1.1-1.5,1.9
		s-1.1,1.7-1.4,2c-0.3,0.3-0.8,1.1-1.2,1.9c-0.4,0.7-0.8,1.3-0.8,1.2c-0.2-0.2-1.9,2-1.7,2.2c0.1,0.1,0,0.2-0.1,0.2
		c-0.3-0.1-1.6,1.5-1.6,2c0,0.2-0.2,0.4-0.3,0.4s-1,0.8-1.8,1.8c-0.8,1-1.6,1.9-1.9,2.1c-0.3,0.2-0.5,0.5-0.5,0.7
		c0,0.2-0.3,0.6-0.7,0.9c-0.4,0.3-0.7,0.7-0.7,0.8c0,0.1-0.5,0.7-1,1.2c-0.6,0.6-1,1.2-1,1.4c0,0.2-0.6,0.8-1.2,1.4
		c-1.3,1-7.2,7.4-7.7,8.3c-0.3,0.6-2.3,2.8-3.3,3.6c-1,0.9-4.3,4.4-5.1,5.4c-0.4,0.5-1.8,2-3.1,3.3c-1.3,1.3-2.6,2.7-3,3.2
		c-0.4,0.5-1.9,2.2-3.5,3.8c-1.6,1.6-3,3.2-3.2,3.6c-0.2,0.4-0.6,0.8-0.8,0.9c-0.2,0.1-0.3,0.3-0.3,0.4c0,0.1-0.6,0.8-1.4,1.6
		c-0.8,0.7-1.5,1.6-1.6,2c-0.1,0.4-0.2,0.6-0.3,0.5c-0.4-0.4-5.8,5.9-5.6,6.5c0,0.2-0.1,0.3-0.2,0.3c-0.4,0-2.3,2.1-2.3,2.6
		c0,0.4-0.7,1.1-0.9,0.9c-0.1-0.1-0.3,0.1-0.5,0.5c-0.2,0.3-0.4,0.7-0.5,0.7c-0.1,0.1-0.3,0.3-0.4,0.5c-0.1,0.2-0.7,0.9-1.2,1.6
		c-1.6,1.9-3.3,4.2-5.5,7.3c-1.1,1.6-2.2,3-2.3,3c-0.1,0-0.2,0.3-0.2,0.6c0,0.3-0.1,0.6-0.3,0.6c-0.3,0.2-0.3,0.7,0,0.7
		c0.1,0,0.5-0.3,0.9-0.6c0.4-0.3,0.7-0.6,0.8-0.5c0.1,0.1,0.1,0,0-0.3c-0.1-0.2-0.1-0.4,0.1-0.4s1.3-1,2.6-2.2
		c1.3-1.2,2.5-2.2,2.7-2.2s1.6-1.3,3.2-2.8c3.7-3.6,7.2-6.9,7.8-7.2c0.3-0.1,1.5-1.2,2.7-2.4c1.2-1.2,2.6-2.4,3-2.7
		c1-0.8,4-3.6,3.8-3.6c-0.1,0,0-0.2,0.2-0.4c0.2-0.2,0.5-0.4,0.6-0.4c0.1,0,0.5-0.2,0.7-0.5c0.3-0.3,0.9-0.7,1.3-1
		c0.4-0.3,1.7-1.4,2.9-2.4c1.1-1,2.6-2.3,3.2-2.8c0.6-0.5,1.7-1.4,2.3-1.9c0.6-0.5,1.3-1.2,1.6-1.4c0.2-0.3,0.5-0.5,0.6-0.5
		c0.3,0,4.5-3.5,6-5c0.7-0.7,1.3-1.2,1.5-1.2s0.7-0.4,1.3-1c0.6-0.5,2-1.9,3.3-2.9s3.1-2.8,4.2-3.8c1.1-1,2.8-2.7,3.9-3.6
		c1.7-1.5,6.2-6.1,6.2-6.3c0,0,0.8-0.9,1.9-1.8c3.2-3.1,6.2-6.2,7-7.3c0.4-0.6,1.4-1.7,2.1-2.5c2.5-2.6,6.2-7.2,7.5-9.5
		c0.4-0.6,1-1.5,1.4-2c0.4-0.5,0.7-1,0.7-1.2c0-0.2,0.2-0.4,0.5-0.6c0.3-0.2,0.8-0.8,1.1-1.4c0.3-0.6,1-1.6,1.6-2.3
		c0.5-0.7,1-1.4,1-1.5c0-0.1,0.3-0.7,0.7-1.3c1-1.6,3-5.4,3-5.8c0-0.2,0.1-0.4,0.2-0.4c0.2-0.1,1-1.4,1.5-2.6c0.2-0.5,0.7-1.5,1-2.2
		c0.4-0.7,0.9-2.1,1.3-3.1c0.4-1,0.9-2.3,1.1-2.9c0.2-0.6,0.6-1.5,0.8-2.1s0.5-1.8,0.8-2.8s0.5-1.9,0.5-2.1s0.2-0.7,0.4-1.2
		c0.5-1,1-3.4,1.8-9.3c0.9-6.4,0.1-17.6-1.5-22.5c-0.2-0.6-0.4-1.2-0.3-1.3c0.1-0.4-0.4-2.4-1.2-4.6c-0.5-1.3-1.3-3.6-1.8-5.1
		c-0.5-1.5-1.1-2.8-1.2-3c-0.1-0.1-0.2-0.4-0.2-0.6c0-0.6-4.2-8.8-4.9-9.6c-0.2-0.2-0.3-0.4-0.3-0.6c0-0.1-0.6-1-1.3-1.9
		c-0.7-0.9-1.3-1.8-1.4-2.1C269,78.4,268,78.5,267.8,79.2 M258,83.2c-0.4,0.4-0.7,0.7-0.7,0.9s0.4-0.2,0.8-0.7
		C259,82.4,259,82.3,258,83.2 M252.5,89.3c-5.7,5.6-6.8,7-2.1,2.6c1.5-1.4,6.8-7,6.6-7C256.9,84.9,254.9,86.9,252.5,89.3
		 M279.6,85.3c0.5,1,1,1.5,1.2,1.3c0.1-0.1-0.2-0.6-0.7-1C279.6,85,279.4,84.9,279.6,85.3 M280.9,87.3c0.1,0.2,0.8,1.5,1.6,2.9
		c0.7,1.4,1.3,2.5,1.3,2.3s-0.5-1.2-1-2.3c-0.6-1.1-1-2-0.9-2c0.1,0,0-0.1-0.1-0.3c-0.1-0.2-0.3-0.4-0.2-0.6c0-0.1-0.2-0.3-0.4-0.3
		C280.8,87,280.8,87.1,280.9,87.3 M246,95.1c-1.6,1.8-1.7,2-0.3,0.8c0.8-0.7,1.5-1.3,1.5-1.4C247.1,94.3,246.4,94.6,246,95.1
		 M285.6,96.8c0.3,0.8,0.8,1.8,0.9,1.5c0-0.3-0.8-1.9-0.9-1.9C285.5,96.4,285.5,96.6,285.6,96.8 M286.7,99.5c0,0.1,0.2,0.5,0.4,1
		c0.3,0.6,0.4,0.7,0.4,0.4c0-0.3-0.2-0.7-0.4-1C286.9,99.6,286.7,99.4,286.7,99.5 M237.4,101.7c-0.3,0.2-0.5,0.4-0.4,0.5
		c0.1,0.1,0.4-0.1,0.7-0.4C238.4,101.2,238.1,101.1,237.4,101.7 M235.7,102.9c-0.4,0.3-0.7,0.5-0.9,0.5c-0.2,0-1.1,0.8-0.8,0.8
		c0.1,0,0.8-0.4,1.5-0.9c0.7-0.5,1.2-0.9,1.1-0.9C236.4,102.4,236,102.6,235.7,102.9 M232.2,105.1l-0.8,0.7l0.8-0.5
		c0.4-0.3,1-0.6,1.2-0.7c0.3-0.1,0.3-0.1,0-0.2C233.1,104.4,232.6,104.7,232.2,105.1 M220.3,111.4c-1.6,0.8-1,0.8,0.7,0
		c0.7-0.4,1.1-0.6,0.9-0.6C221.7,110.7,221,111,220.3,111.4 M291.8,127.3c0,2.1,0,2.9,0.1,1.9c0-1,0-2.7,0-3.8
		C291.8,124.4,291.8,125.3,291.8,127.3 M187.1,125.7c-0.6,0.5-0.4,0.5,0.5,0c0.4-0.2,0.6-0.4,0.4-0.4
		C187.8,125.3,187.4,125.4,187.1,125.7 M170.6,132c-0.9,0.4-0.7,0.5,0.2,0.2c0.4-0.2,0.8-0.3,0.8-0.4
		C171.6,131.7,171.3,131.8,170.6,132 M291.5,135.2c-0.1,0.4-0.1,0.9-0.1,0.9c0.1,0.1,0.2-0.3,0.3-0.7
		C292,134.3,291.8,134.1,291.5,135.2 M107.9,141.2l-0.8,0.8L107.9,141.2c0.9-0.6,1-0.8,0.8-0.8C108.7,140.4,108.3,140.7,107.9,141.2
		 M144.4,142.3c-0.6,0.5-0.4,0.5,0.5,0c0.4-0.2,0.6-0.4,0.4-0.4C145.1,141.9,144.7,142.1,144.4,142.3 M289.2,147.5
		c-0.1,0.4-0.1,0.7-0.1,0.8c0.1,0.1,0.2-0.2,0.3-0.6c0.1-0.4,0.1-0.7,0.1-0.8C289.4,146.9,289.3,147.2,289.2,147.5 M125.5,150.2
		c-0.4,0.2-0.5,0.4-0.3,0.4c0.2,0,0.7-0.2,1-0.4c0.4-0.2,0.5-0.4,0.3-0.4C126.3,149.8,125.9,150,125.5,150.2 M101.6,154.7
		c0,0.9,0,1.3,0.1,0.8c0.1-0.5,0.1-1.2,0-1.7C101.7,153.4,101.6,153.8,101.6,154.7 M112.5,156.5c-0.4,0.3-0.5,0.5-0.3,0.4
		c1.5-0.8,1.7-0.9,1.4-0.9C113.3,156,112.9,156.2,112.5,156.5 M109.4,158.2c-1.1,0.8-1.4,1.2-0.4,0.6c1.4-0.8,1.8-1.2,1.6-1.2
		C110.4,157.6,109.9,157.9,109.4,158.2 M106.6,159.9c-1.5,1.1-1.4,1.2,0.1,0.2c1.5-1,1.5-1,1.2-1
		C107.8,159.1,107.2,159.5,106.6,159.9 M100.7,167.6c-0.3,0.2-1.7,1.1-3.1,2c-5.3,3.4-11.4,9.7-13.9,14.2
		c-3.5,6.3-4.2,13.9-1.9,20.6c2.6,7.4,9.9,16.1,17.8,21.1c1.8,1.1,1.8,1.1,0.5-0.7c-2-2.7-3.6-6.9-3.7-9.8c0-1.3-0.1-1.4-0.2-0.5
		c-0.2,0.8-0.2,0.6-0.2-0.8c0-1.1,0.1-1.9,0.3-2.1c0.2-0.2,0.5-0.9,0.7-1.6c0.4-1.4,1.7-4.3,2.4-5.4c0.3-0.4,0.4-0.8,0.3-0.9
		c-0.1-0.1-0.1-0.1,0.1-0.1c0.2,0,0.7-0.4,1.2-0.9c0.8-0.9,3.6-3.2,5.1-4.3c0.3-0.2,0.3-0.3,0.1-0.2c-0.2,0.1-0.3,0.1-0.2-0.1
		c0.1-0.2,0.3-0.2,0.5-0.2c0.2,0.1,0.6-0.1,1-0.4s0.5-0.5,0.3-0.3c-0.2,0.1-0.3,0.1-0.2-0.1c0.1-0.2,0.3-0.3,0.5-0.3
		c0.6,0.1,1,0,0.8-0.3c-0.1-0.2,0-0.2,0.3-0.1c0.3,0.1,0.4,0.1,0.2-0.2c-0.1-0.2-0.1-0.3,0.1-0.2c0.3,0.2,1.9-0.6,1.9-1
		c0-0.1,0.1-0.2,0.2-0.1c0.1,0.1,1.3-0.4,2.6-1c1.3-0.6,3.3-1.5,4.5-1.9c1.2-0.4,2-0.8,1.9-1c-0.1-0.1,0-0.2,0.1-0.1
		c0.4,0.3,2.4-0.3,2.2-0.7c-0.1-0.2,0-0.2,0.3-0.1c0.4,0.2,1.9-0.2,3.7-0.9c0.3-0.1,1.8-0.6,3.5-1.2s2.9-1,2.8-1.2
		c-0.1-0.1,0.2-0.3,0.7-0.5c0.5-0.2,0.7-0.2,0.6,0c-0.2,0.3,0.1,0.3,0.8,0c0.5-0.2,0.5-0.2,0-0.2c-0.3,0-0.5-0.2-0.6-0.6
		c0-0.3-0.4-0.9-0.8-1.4c-2.4-2.6-2.8-4.4-1.2-6c0.9-0.9,1-1.5,0.3-1.5c-0.3,0-2.8-0.7-6.3-1.8c-0.9-0.3-2.8-0.9-4.3-1.3
		c-1.5-0.5-3.1-1-3.6-1.2c-0.5-0.2-1.8-0.7-2.9-1c-1.1-0.4-2.3-0.8-2.8-1c-0.4-0.2-1.1-0.4-1.6-0.5c-0.4-0.1-1.3-0.4-2-0.6
		c-0.6-0.2-1.9-0.6-2.9-0.9c-0.9-0.3-2.4-0.7-3.2-1C101.6,167.1,101.4,167.1,100.7,167.6 M281.5,169.2c-0.4,0.8-0.6,1.4-0.5,1.4
		c0.2,0,1.5-2.6,1.3-2.7C282.2,167.8,281.8,168.4,281.5,169.2 M194.9,173.4c0.8,0.1,2.2,0.1,3,0c0.8-0.1,0.1-0.1-1.5-0.1
		S194,173.3,194.9,173.4 M189.4,173.9c0.3,0.1,0.7,0.1,0.9,0c0.3-0.1,0-0.1-0.5-0.1C189.3,173.8,189.1,173.8,189.4,173.9 M186,174.4
		c0.2,0.1,0.7,0.1,0.9,0c0.3-0.1,0-0.1-0.5-0.1C186,174.3,185.8,174.3,186,174.4 M207.3,175.5c0.5,0.6,0.9,1.1,1,1.1
		c0.3,0-0.4-0.9-1.1-1.6C206.5,174.4,206.5,174.4,207.3,175.5 M181.9,175c-0.4,0.2-0.2,0.2,0.5,0.1c0.6-0.1,1.1-0.2,1.2-0.3
		C183.8,174.6,182.4,174.8,181.9,175 M174,176.6c-0.5,0.2-0.6,0.2-0.1,0.2c0.3,0,0.7-0.1,0.9-0.2C175.2,176.3,174.9,176.3,174,176.6
		 M171.4,177.1c-0.5,0.2-0.5,0.2-0.1,0.2c0.3,0,0.8-0.1,1-0.2C172.9,176.8,172.2,176.8,171.4,177.1 M168.9,177.6
		c-0.4,0.2-0.2,0.2,0.5,0.1c0.6-0.1,1.1-0.2,1.1-0.3C170.8,177.2,169.4,177.4,168.9,177.6 M208.7,178.4c0,0.5,0.1,0.7,0.1,0.5
		c0.1-0.3,0.1-0.7,0-0.9C208.7,177.7,208.7,177.9,208.7,178.4 M160.4,179.7c-0.5,0.2-0.5,0.2-0.1,0.2c0.3,0,0.8-0.1,1-0.2
		C162,179.4,161.3,179.4,160.4,179.7 M274.6,180.9c-0.5,0.8-0.8,1.4-0.6,1.3c0.2-0.1,0.4-0.3,0.5-0.6c0.1-0.2,0.4-0.8,0.7-1.3
		c0.3-0.5,0.5-0.8,0.4-0.8C275.6,179.4,275.2,180.1,274.6,180.9 M208.5,180.8c-0.1,0.6-0.1,1.1-0.1,1.2c0.1,0.1,0.2-0.4,0.3-1
		c0.1-0.6,0.1-1.1,0.1-1.2C208.7,179.7,208.6,180.2,208.5,180.8 M157.9,180.2c-0.4,0.2-0.2,0.2,0.5,0.1c0.6-0.1,1.1-0.2,1.1-0.3
		C159.8,179.8,158.4,180,157.9,180.2 M155.9,180.7c-0.3,0.1-0.4,0.2-0.1,0.2c0.2,0,0.6-0.1,0.9-0.2c0.3-0.1,0.4-0.2,0.1-0.2
		C156.6,180.5,156.1,180.6,155.9,180.7 M153.8,181.2c-0.3,0.1-0.4,0.2-0.1,0.2c0.2,0,0.6-0.1,0.9-0.2c0.3-0.1,0.4-0.2,0.1-0.2
		C154.5,181,154.1,181.1,153.8,181.2 M272.8,183.7c-0.4,0.6-1,1.4-1.3,1.7L271,186l0.7-0.5c0.4-0.3,0.7-0.6,0.7-0.8
		c0-0.2,0.2-0.5,0.5-0.8c0.4-0.5,0.9-1.4,0.7-1.4C273.5,182.6,273.2,183.1,272.8,183.7 M146,183.3c-0.3,0.1-0.4,0.2-0.1,0.2
		c0.2,0,0.6-0.1,0.9-0.2c0.3-0.1,0.4-0.2,0.1-0.2C146.7,183.1,146.2,183.2,146,183.3 M267.9,190.2c-0.7,0.9-1.6,2-2.1,2.5
		c-0.4,0.5-0.7,0.8-0.6,0.8c0.3,0,1.5-1.2,1.9-1.8c0.2-0.4,0.7-1,1-1.4c0.7-0.7,1.3-1.7,1.1-1.7
		C269.2,188.5,268.6,189.3,267.9,190.2 M204.5,191.6c-0.2,0.5-0.6,1.2-0.8,1.4c-0.4,0.5-0.8,1.5-0.4,1.2c0.3-0.3,1.4-2.4,1.7-3.1
		C205.3,190.2,205,190.6,204.5,191.6 M263.2,195.7c-1,1.1-1.7,2-1.6,2c0.3,0,3.9-3.6,3.7-3.7C265,193.8,264.1,194.6,263.2,195.7
		 M201.9,196.4c-0.2,0.4-0.2,0.8-0.2,0.8c0.1,0,0.3-0.4,0.5-0.8c0.2-0.4,0.3-0.8,0.2-0.8C202.3,195.6,202.1,195.9,201.9,196.4
		 M253.2,206.2c-4.5,4.5-8,8.1-7.9,8.1c0.3,0,16.2-15.9,16.1-16.1C261.4,198.1,257.7,201.7,253.2,206.2 M156.8,201.4
		c0.6,0.7,1.2,1.2,1.2,1.2C158.2,202.6,158,202.4,156.8,201.4l-1.2-1.2L156.8,201.4 M199.3,200.8c-0.2,0.1-0.3,0.4-0.2,0.6
		c0.1,0.2,0.2,0.2,0.4-0.2C199.8,200.5,199.8,200.4,199.3,200.8 M197.8,203.3c-0.2,0.4-0.4,0.7-0.3,0.8c0.1,0.1,0.3-0.2,0.6-0.7
		C198.6,202.4,198.4,202.3,197.8,203.3 M195.8,206.3c-0.3,0.4-0.5,0.8-0.5,0.9c0.1,0.1,0.4-0.3,0.7-0.8
		C196.8,205.3,196.6,205.2,195.8,206.3 M193.2,210.4c-0.6,0.9-1,1.6-0.9,1.6c0.1,0,0.6-0.7,1.2-1.6c0.6-0.9,1-1.6,0.9-1.6
		C194.3,208.9,193.8,209.6,193.2,210.4 M191.7,212.5c0,0.2-0.4,0.8-0.8,1.5c-0.5,0.8-0.6,1-0.2,0.5c0.9-1,1.6-2.3,1.3-2.3
		C191.8,212.2,191.7,212.4,191.7,212.5 M243.5,215.5c-0.6,0.6-1.1,1.2-1,1.2c0.1,0,0.6-0.5,1.3-1.2c0.6-0.6,1.1-1.2,1-1.2
		C244.7,214.3,244.1,214.9,243.5,215.5 M188.9,216.5c-0.5,0.6-0.9,1.3-0.9,1.5c0.1,0.2,0.5-0.4,1.1-1.2
		C190.3,215.1,190.2,215,188.9,216.5 M240.3,218.5c-0.9,0.9-1.5,1.6-1.3,1.6c0.4,0,3.3-2.8,3.1-3C242,217,241.2,217.6,240.3,218.5
		 M101.7,219.5c0,1.1,0,1.5,0.1,1s0.1-1.4,0-2C101.7,218,101.7,218.5,101.7,219.5 M236.1,222.3c-1.1,1.1-1.9,1.9-1.7,1.9
		c0.2,0,0.7-0.4,1.2-0.9C239,219.7,239.2,219.4,236.1,222.3 M184.2,223.7c-0.3,0.3-0.4,0.6-0.3,0.7c0.1,0.1,0.3-0.2,0.6-0.5
		C185,223,184.9,223,184.2,223.7 M232,225.8c-0.9,0.9-1.5,1.5-1.3,1.5c0.2,0,1-0.7,1.8-1.6C234.3,223.8,234.2,223.8,232,225.8
		 M182.3,226.6c-0.3,0.3-0.6,0.6-0.5,0.8c0.1,0.2,0.4-0.1,0.7-0.5C183.2,225.9,183.2,225.9,182.3,226.6 M228.3,229.1
		c-0.9,0.9-1.2,1.3-0.8,1c0.6-0.4,2.8-2.5,2.4-2.4C229.9,227.6,229.1,228.3,228.3,229.1 M181.1,228.2c-0.2,0.2-0.4,0.6-0.5,0.9
		c-0.1,0.3-0.4,0.7-0.7,0.8c-0.3,0.2-0.5,0.4-0.4,0.5c0.1,0.1-0.1,0.4-0.3,0.7c-0.4,0.4-0.9,1.5-0.5,1.1c0.5-0.5,3-4.4,2.9-4.4
		C181.5,227.9,181.2,228,181.1,228.2 M225.1,231.7c-0.8,0.7-1.2,1.2-1,1.2s0.3-0.1,0.2-0.2c-0.1-0.1,0-0.2,0.2-0.2
		c0.3,0,0.7-0.3,1.7-1.6C226.9,230.2,226.5,230.4,225.1,231.7 M222.1,234.3l-0.9,1L222.1,234.3c0.6-0.4,1.1-0.9,1.1-0.9
		C223.2,233.2,223,233.4,222.1,234.3 M217.7,238c-0.9,0.8-1.5,1.5-1.2,1.4c0.4-0.1,3.3-3,3-2.9C219.4,236.5,218.6,237.2,217.7,238
		 M173.7,239.2c-0.2,0.2-0.3,0.5-0.2,0.7c0.1,0.2,0.2,0.1,0.4-0.3C174.3,238.9,174.2,238.7,173.7,239.2 M214.3,241
		c-0.8,0.7-1.2,1.2-1,1c0.3-0.2,0.5-0.3,0.5-0.1c0,0.1,0.1,0,0.3-0.2c0.1-0.3,0.4-0.4,0.6-0.3c0.2,0.1,0.2,0.1,0.1,0
		c-0.1-0.1,0.1-0.6,0.5-1C216.4,239.1,215.9,239.5,214.3,241 M172.9,240.7c-0.4,0.3-0.7,1-0.4,1c0.1,0,0.3-0.3,0.5-0.7
		C173.5,240.3,173.5,240.2,172.9,240.7 M210.3,244.4c-1,0.9-1.7,1.7-1.5,1.7c0.3,0,1.7-1.4,3.1-2.8
		C212.7,242.3,212.1,242.7,210.3,244.4 M169.1,246.5c-0.2,0.2-0.3,0.5-0.2,0.7c0.1,0.2,0.3,0,0.5-0.4
		C169.8,246,169.6,245.9,169.1,246.5 M207.1,247.1c-0.6,0.5-2.5,2.3-4.3,3.8c-1.8,1.6-3.1,2.9-2.9,3c0.2,0.1,1.1-0.7,2.1-1.8
		c1-1,1.8-1.8,2-1.7c0.1,0.1,0.1,0.1,0.1-0.1c-0.1-0.2,0.2-0.5,0.7-0.8c0.8-0.5,3.9-3.4,3.6-3.4
		C208.3,246.1,207.7,246.5,207.1,247.1 M166.5,250.7c-0.2,0.2-0.3,0.5-0.2,0.7c0.1,0.2,0.2,0.1,0.4-0.3
		C167,250.4,166.9,250.2,166.5,250.7 M198,255.3l-1,1.1L198,255.3c1.1-0.9,1.3-1.1,1.1-1.1C199.1,254.2,198.6,254.7,198,255.3
		 M196.1,256.9c-0.6,0.6-0.6,0.7-0.1,0.4c0.3-0.2,0.6-0.5,0.7-0.7C196.9,256.1,196.8,256.1,196.1,256.9 M188.9,263.5
		c-5,4.7-11.5,11.4-17.1,17.3c-2.2,2.3-2.1,2.3,3.4-3c3.1-3,4.6-4.6,4.5-4.8c-0.1-0.2,0-0.4,0.2-0.3c0.2,0,0.3-0.1,0.3-0.2
		c-0.1-0.4,7.3-7.7,7.8-7.7c0.2,0,1.2-0.9,2.3-2c1-1.1,2.5-2.6,3.2-3.4C196.1,256.9,194.6,258.1,188.9,263.5 M160.7,260.3
		c-0.4,1-0.3,1,0.3,0.1c0.3-0.4,0.4-0.8,0.2-0.8C161.2,259.6,160.9,260,160.7,260.3 M154.6,271.4c-0.3,0.3-0.4,0.7-0.4,0.8
		c0.1,0.2,0.3-0.1,0.5-0.5C155.3,270.7,155.2,270.6,154.6,271.4 M153.5,273.3c-0.2,0.4-0.4,0.8-0.3,0.9c0,0.1,0.3-0.2,0.5-0.7
		C154.2,272.5,154.1,272.4,153.5,273.3 M285,274.8l-1.8,1.9L285,274.8c1.8-1.6,2.1-1.9,1.9-1.9C286.9,272.9,286,273.8,285,274.8
		 M168.4,284.8c-1,1.1-2.1,2.4-2.4,2.8c-0.4,0.4-1,1.1-1.3,1.6c-0.4,0.4-0.5,0.6-0.2,0.4c1-0.8,2.2-2,2.5-2.7
		c0.2-0.4,0.5-0.6,0.6-0.6c0.1,0.1,0.2,0,0.2-0.1c0-0.1,0.6-0.8,1.3-1.6c0.7-0.8,1.3-1.5,1.2-1.7
		C170.2,282.9,169.4,283.7,168.4,284.8 M146.6,287.5c-0.5,1.1-0.2,1.2,0.3,0.1c0.2-0.5,0.3-0.9,0.2-0.9
		C147.1,286.7,146.8,287.1,146.6,287.5 M163.5,290.6c-1,1.3-1.1,1.5-0.3,0.8c0.4-0.4,0.8-0.8,0.8-1C164,290,164,290,163.5,290.6
		 M161.2,293.5c-1.2,1.4-1.1,1.4,1-0.5c0.2-0.2,0.3-0.5,0.3-0.6C162.4,292.3,161.8,292.8,161.2,293.5 M158.1,297.6
		c-0.7,0.9-0.6,1,0.2,0.3c0.3-0.3,0.5-0.6,0.5-0.8C158.8,297,158.4,297.2,158.1,297.6 M156.8,299.5c-0.3,0.4-0.5,0.8-0.4,0.8
		c0.1,0,0.4-0.4,0.7-0.8s0.4-0.8,0.4-0.8C157.4,298.7,157.1,299,156.8,299.5 M155.5,301.2c-0.8,1.1-0.7,1.2,0.1,0.4
		c0.4-0.4,0.6-0.8,0.6-0.9C156.1,300.6,155.8,300.8,155.5,301.2 M150.1,309.7c-1.6,2.6-1.7,2.9-1.2,2.4c0.5-0.5,2-3.3,1.8-3.3
		C150.6,308.9,150.3,309.2,150.1,309.7 M147,314.9c-0.5,0.8-0.6,1.1-0.3,0.8c0.6-0.6,1.3-1.9,1.1-2.1
		C147.8,313.6,147.5,314.2,147,314.9 M145.2,318.4l-0.4,1l0.5-0.7c0.5-0.6,0.7-1.3,0.5-1.3C145.7,317.4,145.5,317.9,145.2,318.4
		 M135.1,320.5c-0.1,0.1-0.2,0.4-0.2,0.7c0,0.5,0,0.5,0.3-0.1C135.4,320.5,135.4,320.2,135.1,320.5 M134.7,322.7
		c0,0.5,0.1,0.7,0.1,0.5c0.1-0.3,0.1-0.7,0-0.9C134.7,322,134.7,322.2,134.7,322.7 M142.4,324.4c-0.1,0.3-0.2,0.7-0.3,0.9
		c-0.1,0.2,0,0.1,0.3-0.2c0.2-0.3,0.4-0.7,0.3-0.9C142.6,324,142.5,324.1,142.4,324.4 M130,328c0,0.9,0,1.2,0.1,0.7
		c0.1-0.5,0.1-1.2,0-1.6C130.1,326.8,130,327.1,130,328 M140,330.4c-0.1,0.4-0.1,0.7-0.1,0.8c0.1,0.1,0.2-0.2,0.3-0.6
		c0.1-0.4,0.1-0.7,0.1-0.8C140.2,329.7,140.1,330,140,330.4 M138.2,336.1c-0.1,0.4-0.1,0.7-0.1,0.8c0.1,0.1,0.2-0.2,0.3-0.6
		c0.1-0.4,0.1-0.7,0.1-0.8C138.4,335.4,138.3,335.7,138.2,336.1 M137.6,338.2c-0.1,0.4-0.1,0.7-0.1,0.8c0.1,0.1,0.2-0.2,0.3-0.6
		c0.1-0.4,0.1-0.7,0.1-0.8C137.9,337.5,137.7,337.8,137.6,338.2 M131.6,340c0,0.6,0.1,0.8,0.1,0.5c0.1-0.3,0.1-0.8,0-1
		C131.6,339.1,131.6,339.4,131.6,340 M137.1,340.2c-0.1,0.3-0.1,0.8-0.1,1.1c0,0.3,0.1,0.1,0.3-0.5
		C137.5,339.7,137.4,339.2,137.1,340.2 M130,341.4c0,0.5,0.1,0.7,0.1,0.5c0.1-0.3,0.1-0.7,0-0.9C130.1,340.7,130,340.9,130,341.4
		 M136.6,342.7c-0.1,0.5-0.2,1.1-0.1,1.4c0,0.3,0.1,0,0.3-0.6c0.1-0.6,0.2-1.3,0.1-1.4C136.8,341.9,136.7,342.2,136.6,342.7
		 M146.4,343.6c-0.6,0.6-1.1,1.2-1,1.2c0.1,0,0.6-0.5,1.3-1.2c0.6-0.6,1.1-1.2,1-1.2C147.6,342.4,147,343,146.4,343.6 M131.1,345.7
		c0,1.1,0,1.6,0.1,1c0.1-0.6,0.1-1.6,0-2.1C131.1,344.1,131.1,344.6,131.1,345.7 M136,346.9c0,0.6,0.1,0.9,0.1,0.6s0.1-0.9,0-1.2
		S136,346.2,136,346.9 M135.2,355.1c0,0.9,0.1,1.2,0.1,0.7c0.1-0.5,0.1-1.2,0-1.6C135.3,353.8,135.2,354.2,135.2,355.1"/>
	<path id="path3" class="st3" d="M143.2,149c-0.2,0.1-0.7,0.3-1.1,0.3c-0.4,0-0.8,0.1-0.9,0.2c-0.1,0.1-1,0.5-1.9,0.8
		s-2.2,0.8-2.8,1.1c-0.6,0.3-1.2,0.5-1.3,0.5c-0.1,0-0.7,0.2-1.3,0.5c-0.6,0.3-1.2,0.5-1.3,0.5s-0.9,0.3-1.8,0.8
		c-0.9,0.4-1.7,0.8-1.8,0.8c-0.2,0-0.8,0.2-1.4,0.5c-0.6,0.3-1.2,0.5-1.3,0.5c-0.3,0-7.3,3.5-7.7,3.9c-0.6,0.5-0.1,1.3,1.1,1.9
		c0.7,0.3,1.7,0.7,2.2,1c0.6,0.3,1.1,0.5,1.3,0.5s1,0.3,1.9,0.8c6.6,3.1,10.9,3.1,13.8,0c1-1,2.2-3.2,2.2-3.8c0-0.2,0.5-1.8,1-3.5
		c0.6-1.7,1-3.4,1-3.8s0.1-0.9,0.3-1.2C143.9,150.5,143.7,148.6,143.2,149"/>
	<path id="path4" class="st4" d="M252.7,64.4l-2.1,2.1L252.7,64.4c1.3-1.1,2.2-2,2.2-2.1C254.9,62.1,254.7,62.4,252.7,64.4
		 M249.1,67.8l-0.8,0.8L249.1,67.8c0.5-0.3,0.9-0.7,0.9-0.8C250,66.8,249.8,67,249.1,67.8 M267,80.1c-0.7,1.3-1.5,2.6-1.8,3.1
		c-0.9,1.2-1.5,2.2-1.3,2.2c0.2,0,1.9-2.4,2.7-3.9c0.4-0.8,0.8-1.5,0.9-1.6c0.1-0.1,0.2-0.4,0.3-0.7c0.1-0.3,0.4-0.6,0.7-0.6
		c0.3,0,0.6,0.3,0.7,0.6c0.1,0.3,0.6,1,1,1.5l0.8,0.9l-0.7-1.2C268.5,77.3,268.6,77.3,267,80.1 M271.6,82.6c0.5,0.9,1.1,1.7,1.1,1.4
		c0-0.2-1.3-2.2-1.4-2.2C271.2,81.8,271.3,82.1,271.6,82.6 M273.1,85.2c0.3,0.5,0.8,1.4,1.1,2c0.3,0.6,0.6,1.1,0.7,1.1
		c0.3,0-1.3-3-1.9-3.6C272.8,84.4,272.8,84.6,273.1,85.2 M261.7,88.1c-3.7,4.8-9.6,10.9-13.3,13.5c-0.6,0.4-1,0.8-0.9,0.9
		c0.1,0.1,0.2,0,0.3-0.1c0.1-0.1,0.7-0.6,1.2-1c2.2-1.6,11-10.4,11.4-11.3c0.1-0.3,0.3-0.5,0.5-0.6c0.5-0.3,2.8-3.5,2.5-3.5
		C263.4,85.9,262.6,86.9,261.7,88.1 M255.1,87l-0.8,0.8L255.1,87c0.5-0.3,0.9-0.7,0.9-0.8C256,86.1,255.8,86.3,255.1,87 M277.1,93.3
		c0,0.1,0.2,0.5,0.4,0.9c0.2,0.4,0.4,0.6,0.4,0.4c0-0.2-0.2-0.6-0.4-0.9C277.3,93.4,277.1,93.2,277.1,93.3 M278.6,97.2
		c0,0.3,1.4,3.8,1.5,3.8c0.1-0.1-0.2-0.9-0.6-1.9C278.9,97.4,278.6,96.8,278.6,97.2 M245.2,104.1c-1,0.8-2.6,2-3.6,2.6
		c-1.9,1.3-2.2,1.6-1.1,1.1c0.4-0.2,0.7-0.4,0.7-0.5s0.2-0.2,0.5-0.2c0.3,0,0.5-0.1,0.5-0.3c0-0.1,0.2-0.3,0.5-0.3s0.5-0.1,0.4-0.2
		c-0.1-0.1,0.8-1,1.9-1.8c1.1-0.9,2.1-1.6,2.1-1.7C247.1,102.5,247.1,102.6,245.2,104.1 M281.3,104.8c0,0.3,0.1,0.8,0.2,1l0.2,0.5
		v-0.5c0-0.3-0.1-0.8-0.2-1l-0.2-0.5V104.8 M229.4,106.9c-1,0.5-0.9,0.7,0.1,0.2c0.4-0.2,0.8-0.5,0.8-0.5
		C230.2,106.5,230.2,106.5,229.4,106.9 M281.7,107.2c0.1,0.4,0.3,1,0.4,1.2c0.1,0.2,0.4,1.4,0.6,2.6c0.6,3.3,0.6,3.3,0.7,2.4
		c0-0.8-0.2-2-1-4.9C281.9,106.9,281.3,105.7,281.7,107.2 M234.1,111.3c-1.5,0.9-3.1,1.8-3.5,2c-0.4,0.2-0.7,0.4-0.6,0.5
		c0.1,0.1,3.2-1.5,4.8-2.6c0.7-0.5,1.5-1,1.8-1.1c0.3-0.2,0.4-0.3,0.3-0.3C236.9,109.6,235.6,110.4,234.1,111.3 M261.8,113.8
		c-2,2-3.8,3.6-3.9,3.7c-0.1,0-0.8,0.6-1.4,1.2l-1.2,1.2l1.4-1.1c0.8-0.6,2.9-2.6,4.7-4.4c3.6-3.6,4-3.8,4.4-2.6l0.3,0.8l-0.1-0.9
		c-0.1-0.5-0.3-1-0.4-1c-0.1,0-0.2-0.2-0.1-0.3C265.9,109.8,265.3,110.3,261.8,113.8 M229,114.2c-0.3,0.2-2.3,1.3-4.4,2.3
		c-2.1,1.1-3.9,2-4,2.1c-0.3,0.3,0.8-0.2,2.8-1.2c1.1-0.5,2.1-1,2.3-1c0.2,0,0.4-0.1,0.4-0.3c0-0.1,0.2-0.3,0.3-0.3
		c0.5,0,1.7-0.6,1.7-0.8c0-0.1,0.2-0.2,0.4-0.2c0.2,0,0.6-0.2,0.8-0.5C229.8,113.7,229.8,113.7,229,114.2 M266.3,121.2
		c0,3.2,0,4.4,0.1,2.8c0-1.6,0-4.2,0-5.7S266.3,118.1,266.3,121.2 M283.7,117.7c0,0.8,0,1.1,0.1,0.7c0.1-0.4,0.1-1,0-1.4
		C283.7,116.6,283.7,116.9,283.7,117.7 M219,119.3c-0.7,0.4-0.7,0.5-0.3,0.3c0.7-0.2,1.8-0.9,1.4-0.9C220,118.8,219.5,119,219,119.3
		 M291.5,120.6c0,0.6,0.1,0.9,0.1,0.6c0.1-0.3,0.1-0.8,0-1.2C291.5,119.7,291.5,119.9,291.5,120.6 M253.1,121.4
		c-0.9,0.7-1.8,1.3-2,1.3c-0.1,0-0.7,0.4-1.2,0.9c-0.9,0.9,2.3-1.2,4.3-2.9C255.6,119.6,254.9,120,253.1,121.4 M213.9,121.6
		c-1.1,0.5-3.2,1.4-4.5,2c-2.2,0.9-3.3,1.7-1.3,0.9c2.4-0.9,8.6-3.9,8.1-3.9C216.1,120.6,215.1,121,213.9,121.6 M205.5,125.3
		c-0.6,0.3-1,0.5-0.9,0.5c0.4,0,2.2-0.7,2.2-0.9C206.8,124.7,206.8,124.7,205.5,125.3 M246.8,125.8c-0.6,0.5-0.6,0.5,0,0.3
		c0.3-0.2,0.6-0.4,0.7-0.5C247.8,125.1,247.5,125.2,246.8,125.8 M203.3,126.2c-0.7,0.3-0.7,0.4-0.1,0.2c0.4-0.1,0.8-0.3,0.9-0.4
		C204.4,125.7,204.2,125.7,203.3,126.2 M200.8,127.1c-0.9,0.4-0.7,0.5,0.2,0.2c0.4-0.2,0.8-0.3,0.8-0.4
		C201.8,126.8,201.5,126.8,200.8,127.1 M283.7,129c0,0.6,0.1,0.8,0.1,0.5c0.1-0.3,0.1-0.8,0-1C283.7,128.2,283.7,128.5,283.7,129
		 M241.1,129.2c0,0.1-0.2,0.3-0.4,0.3c-0.4,0-1.1,0.4-3,1.6c-0.8,0.5-2.1,1.2-2.9,1.6s-1.6,0.8-1.6,1c-0.2,0.3,2.5-1.1,6.4-3.3
		c2.5-1.4,2.6-1.5,2-1.5C241.3,128.9,241.1,129,241.1,129.2 M194.3,129.8c-1.5,0.7-1.5,0.9,0,0.3c1-0.4,2.1-1,1.7-0.9
		C195.8,129.2,195.1,129.5,194.3,129.8 M265.9,129.3c0,0.7-0.5,4-0.6,4.7c-0.2,0.7-0.2,0.8,0.1,0.1c0.3-0.8,0.9-4.7,0.7-4.9
		C265.9,129.1,265.9,129.2,265.9,129.3 M190.8,131.2c-1,0.4-2.4,0.9-3.1,1.2c-0.7,0.3-1.2,0.5-1.2,0.5c0.1,0.1,3.1-0.9,4.5-1.5
		c0.6-0.2,1.1-0.4,1.2-0.4c0.1,0,0.3-0.1,0.4-0.3C192.8,130.4,192.9,130.4,190.8,131.2 M282.9,133.3c-0.1,0.5-0.1,0.9-0.1,0.9
		c0.1,0.1,0.2-0.3,0.3-0.7C283.4,132.5,283.2,132.3,282.9,133.3 M291.5,133.9c0,0.8,0,1.1,0.1,0.7c0.1-0.4,0.1-1,0-1.4
		C291.5,132.7,291.5,133.1,291.5,133.9 M184.8,133.6c-0.6,0.3-0.9,0.5-0.8,0.5c0.4,0,2.4-1,2.1-1
		C185.9,133.1,185.3,133.3,184.8,133.6 M231.6,134.4c-0.4,0.3-0.7,0.5-0.5,0.5c0.1,0,0.6-0.2,1-0.5c0.4-0.3,0.7-0.5,0.5-0.5
		C232.5,133.9,232.1,134.1,231.6,134.4 M180.6,135.1c-0.6,0.3-0.9,0.5-0.8,0.5c0.4,0,2.4-1,2.1-1
		C181.8,134.7,181.2,134.9,180.6,135.1 M264.7,136c-0.1,0.5-0.1,0.9-0.1,0.9c0.1,0.1,0.2-0.3,0.3-0.7s0.1-0.9,0.1-0.9
		C265,135.2,264.8,135.5,264.7,136 M178.3,136.1c-0.7,0.3-0.7,0.4-0.1,0.2c0.7-0.2,1.6-0.6,1.2-0.6
		C179.2,135.7,178.7,135.9,178.3,136.1 M226.8,136.6c-1,0.5-0.9,0.7,0.1,0.2c1-0.5,1.2-0.6,0.8-0.6
		C227.6,136.2,227.2,136.4,226.8,136.6 M175.7,137.1c-0.7,0.3-1.2,0.6-1,0.6c0.2,0,0.9-0.3,1.6-0.6c0.7-0.4,1.2-0.6,1-0.6
		C177.1,136.5,176.4,136.8,175.7,137.1 M173.3,138c-0.5,0.2-0.5,0.2,0,0.2c0.3,0,0.6-0.1,0.7-0.2C174.3,137.7,174,137.7,173.3,138
		 M222.8,138.2c-0.6,0.2-1.2,0.6-1.4,0.7c-0.2,0.2-0.8,0.5-1.4,0.7c-0.5,0.3-0.9,0.5-0.9,0.6c0.1,0.1,1.3-0.5,2.8-1.2
		C224.5,137.9,225,137.4,222.8,138.2 M171.2,138.7c-1.2,0.5-2.8,1.2-2.1,1.1c0.9-0.2,3.3-1.1,3.4-1.3
		C172.8,138.2,172.4,138.3,171.2,138.7 M281.6,139.8c-0.2,0.4-0.3,0.9-0.3,1.1c0,0.2,0.2,0,0.4-0.5
		C282.1,139.3,282,138.8,281.6,139.8 M167.1,140.4c-0.6,0.3-0.9,0.5-0.8,0.5c0.2,0,0.7-0.2,1.3-0.5
		C168.9,139.7,168.4,139.7,167.1,140.4 M216.8,141.1c-0.9,0.4-1.4,0.8-1.3,0.8c0.1,0,1-0.3,1.8-0.7c0.9-0.4,1.4-0.8,1.3-0.8
		C218.5,140.4,217.7,140.7,216.8,141.1 M164.5,141.4c-0.6,0.3-0.9,0.5-0.8,0.5c0.4,0,2.4-1,2.1-1C165.6,140.9,165,141.1,164.5,141.4
		 M280.6,143c-0.6,2-0.5,2.5,0.1,0.6c0.3-0.9,0.5-1.7,0.4-1.8C281.1,141.7,280.9,142.2,280.6,143 M161.8,142.4
		c-0.6,0.3-0.9,0.5-0.7,0.5c0.2,0,0.8-0.2,1.3-0.5C163.7,141.8,163.2,141.8,161.8,142.4 M213.5,142.5c-1.2,0.6-0.7,0.6,0.7,0
		c0.6-0.3,0.9-0.5,0.7-0.5C214.6,142,214,142.2,213.5,142.5 M159.2,143.5c-0.6,0.3-0.8,0.5-0.6,0.5c0.2,0,0.5-0.1,0.6-0.2
		c0.1-0.1,0.4-0.3,0.7-0.3c0.3,0,0.6-0.1,0.7-0.3C160.8,142.9,160.4,142.9,159.2,143.5 M209.6,144c-0.5,0.3-1.1,0.5-1.4,0.5
		c-0.2,0-0.5,0.1-0.6,0.2c-0.1,0.1-0.7,0.4-1.3,0.6c-1,0.3-1.8,0.8-1.3,0.8c0.3,0,6.1-2.4,6.1-2.5
		C211.2,143.4,210.5,143.6,209.6,144 M156.9,144.4c-0.7,0.3-0.7,0.3-0.1,0.2c0.7-0.2,1.6-0.6,1.2-0.6
		C157.8,144,157.3,144.2,156.9,144.4 M154.7,145.2c-0.9,0.5-0.3,0.5,0.7,0c0.4-0.2,0.6-0.4,0.4-0.4C155.5,144.8,155,145,154.7,145.2
		 M262.1,145.5c-0.1,0.4-0.1,0.8,0,0.8c0.1,0.1,0.2-0.2,0.3-0.6c0.1-0.4,0.1-0.8,0-0.8C262.4,144.8,262.2,145.1,262.1,145.5
		 M152.2,146.2c-1.3,0.6-2.7,2.5-2.7,3.5c0,0.2,0.1,0.1,0.2-0.2c0.7-1.6,1.6-2.8,2.9-3.3c0.7-0.3,1.2-0.6,1.1-0.6
		S152.9,145.9,152.2,146.2 M261.4,147.6c-0.6,1.5-0.5,1.7,0.1,0.4c0.3-0.6,0.5-1.1,0.4-1.3C261.9,146.6,261.6,147,261.4,147.6
		 M279.1,147.9c-0.3,0.6-0.4,1.1-0.3,1.2c0.1,0.1,0.3-0.4,0.6-1C279.8,146.7,279.7,146.6,279.1,147.9 M200.5,147.7
		c-0.5,0.3-0.8,0.5-0.7,0.5c0.1,0,0.7-0.2,1.2-0.5c0.5-0.3,0.8-0.5,0.7-0.5C201.5,147.2,201,147.4,200.5,147.7 M198.2,148.6
		c-0.9,0.5-0.6,0.5,0.6,0c0.5-0.2,0.7-0.4,0.5-0.4C199,148.2,198.5,148.4,198.2,148.6 M143.8,149.6c0,0.5,0.1,0.9,0.3,0.9
		c0.1,0,0.3-0.4,0.3-0.9c0-0.5-0.1-0.9-0.3-0.9C143.9,148.7,143.8,149.1,143.8,149.6 M140.9,149.3c-0.3,0.2-0.7,0.4-0.8,0.5
		c-0.2,0.2,0.7-0.1,1.1-0.4c0.1-0.1,0.6-0.2,1-0.3l0.8-0.1l-0.8,0C141.9,149,141.3,149.2,140.9,149.3 M195.8,149.5
		c-0.3,0.2-0.3,0.3,0,0.3c0.2,0,0.6-0.1,0.8-0.3c0.3-0.2,0.3-0.3,0-0.3C196.4,149.2,196,149.3,195.8,149.5 M260.7,149.3
		c0,0.1-0.2,0.6-0.4,1.1c-0.2,0.5-0.3,0.9-0.3,0.9c0.2,0,1-1.8,0.8-2C260.8,149.2,260.7,149.2,260.7,149.3 M278.2,150.3
		c-0.2,0.5-0.2,0.9-0.2,0.9c0.1,0.1,0.2-0.3,0.4-0.7c0.2-0.5,0.2-0.9,0.2-0.9S278.3,149.8,278.2,150.3 M193.8,150.3
		c-1.2,0.7-0.7,0.7,0.7,0c0.6-0.3,0.9-0.5,0.7-0.5C194.8,149.8,194.3,150,193.8,150.3 M149.1,151.2c-0.1,0.5-0.1,1,0,1.1
		c0.1,0.1,0.2-0.3,0.3-0.8c0.1-0.5,0.1-1,0-1.1C149.3,150.3,149.2,150.6,149.1,151.2 M136.7,150.9c-0.4,0.2-0.7,0.4-0.7,0.5
		c0,0.1,0.8-0.1,1.2-0.4c0.1-0.1,0.5-0.2,0.8-0.3l0.5-0.1l-0.5,0C137.6,150.6,137,150.7,136.7,150.9 M191,151.2
		c-0.5,0.2-0.8,0.4-0.8,0.5c0,0.1,2.4-0.6,2.6-0.8C193,150.6,191.7,150.9,191,151.2 M143.3,152.5c0,0.6,0.1,0.8,0.1,0.5
		c0.1-0.3,0.1-0.8,0-1C143.3,151.6,143.3,151.9,143.3,152.5 M187.4,152.5c-0.1,0.1-0.6,0.3-1,0.5c-0.5,0.2-0.7,0.3-0.4,0.3
		c0.5,0,2.6-1,2.1-1C187.8,152.4,187.5,152.4,187.4,152.5 M259.1,153.3c-0.1,0.3-0.2,0.8-0.3,1c-0.2,0.4-0.1,0.4,0.2-0.1
		c0.2-0.3,0.4-0.8,0.3-1C259.2,152.8,259.2,152.8,259.1,153.3 M183.7,153.9c-0.4,0.2-1.4,0.7-2.2,1c-1.7,0.7-1.4,0.8,0.4,0.2
		c1.7-0.6,3.8-1.7,3.2-1.6C184.7,153.4,184.2,153.6,183.7,153.9 M276.5,154.1c-0.2,0.4-0.4,0.9-0.4,1.1c0,0.2,0.2-0.1,0.5-0.7
		c0.3-0.6,0.5-1.1,0.4-1.1C276.9,153.4,276.7,153.7,276.5,154.1 M125.1,155.7c-1.1,0.7-1.1,0.9,0,0.3c0.5-0.3,1.1-0.5,1.4-0.6
		c0.5-0.1,0.5-0.1,0-0.2C126.1,155.2,125.5,155.4,125.1,155.7 M148.1,156c-0.1,0.3-0.1,0.8-0.1,1.1c0,0.3,0.1,0.1,0.3-0.5
		C148.5,155.6,148.4,155,148.1,156 M275.2,156.9c-0.4,0.6-0.7,1.3-0.7,1.4c0,0.1-0.1,0.2-0.3,0.2s-0.3,0.2-0.3,0.4
		c0,0.3-2.1,4.6-2.6,5.2c-0.6,0.7-1.6,2.8-1.2,2.5c0.2-0.2,0.4-0.5,0.4-0.6c0-0.1,0.2-0.6,0.5-0.9c0.3-0.4,1.3-2.2,2.2-4.1
		s2-3.8,2.3-4.2c0.3-0.5,0.5-0.9,0.4-0.9S275.6,156.3,275.2,156.9 M122.3,157.1c-0.8,0.4-1.5,0.8-1.4,0.9c0.1,0.1,2.8-1.2,2.9-1.5
		C124,156.2,124.1,156.2,122.3,157.1 M175.5,157.1c-0.7,0.4-0.7,0.5-0.3,0.3c0.9-0.2,2.1-0.9,1.6-0.8
		C176.6,156.6,176,156.8,175.5,157.1 M119.3,158.6c-0.6,0.3-1.1,0.7-1.1,0.8c0,0.1,0.3,0,0.8-0.3c0.4-0.3,0.9-0.5,1-0.5
		c0.1,0,0.3-0.1,0.4-0.3C120.7,158,120.6,158,119.3,158.6 M255.9,159.8c-0.4,0.8-0.6,1.4-0.4,1.3c0.3-0.2,1.3-2.5,1.2-2.6
		C256.7,158.4,256.3,159,255.9,159.8 M169.5,159.1c-0.5,0.3-1.1,0.5-1.4,0.5c-0.4,0-1,0.5-0.6,0.5c0.2,0,3.6-1.3,3.8-1.4
		C171.6,158.4,170.3,158.7,169.5,159.1 M118.2,160.2c0,0.5,0.7,1.2,0.9,0.9c0.1-0.1,0-0.2-0.1-0.2c-0.2,0-0.4-0.3-0.5-0.6
		C118.3,160,118.3,159.9,118.2,160.2 M147,161c-0.1,0.5-0.1,1,0,1.1c0.1,0.1,0.2-0.1,0.2-0.5c0-0.4,0.1-0.7,0.3-0.8
		c0.2-0.1,0.2-0.2,0-0.5C147.2,160.2,147.1,160.3,147,161 M165.6,160.7c-1.2,0.6-0.7,0.6,0.7,0c0.6-0.3,0.9-0.5,0.7-0.5
		C166.7,160.2,166.1,160.4,165.6,160.7 M140.5,161.2c-0.2,0.4-0.3,0.8-0.2,0.8c0.1,0,0.3-0.4,0.5-0.8c0.2-0.4,0.2-0.8,0.2-0.8
		S140.7,160.8,140.5,161.2 M253.9,163.5c-0.7,1.1-1.4,2.4-1.6,2.8c-0.2,0.4-0.6,1.1-0.9,1.4c-0.2,0.4-0.1,0.2,0.4-0.3
		c0.5-0.5,0.8-1.1,0.8-1.2c0-0.2,0.1-0.3,0.3-0.3c0.1,0,0.3-0.1,0.3-0.3c0-0.2,0.5-1.1,1-2.1c0.6-1,1-1.9,1-1.9
		C255.1,161.5,254.5,162.4,253.9,163.5 M121.1,161.9c0,0.3,1.7,1.2,2.2,1.1c0.5,0,0.5,0,0-0.2c-0.3-0.1-0.9-0.3-1.4-0.6
		C121.5,161.9,121.1,161.8,121.1,161.9 M161.8,162.1c-0.5,0.2-0.9,0.4-1,0.5c-0.3,0.3,0.5,0.2,1.6-0.3
		C163.5,161.7,163.1,161.6,161.8,162.1 M138.8,163.5c-0.6,0.6-1.4,1.3-1.7,1.5c-0.3,0.2,0,0.1,0.6-0.2c0.9-0.5,2.7-2.2,2.4-2.4
		C140,162.4,139.4,162.9,138.8,163.5 M157.1,163.8c-0.6,0.3-1.1,0.6-1,0.6c0.1,0.1,0.7-0.2,1.5-0.5c0.8-0.4,1.2-0.7,1-0.7
		C158.4,163.3,157.7,163.6,157.1,163.8 M146,166c-0.1,0.4-0.1,0.8,0,0.8c0.1,0.1,0.2-0.2,0.3-0.6c0.1-0.4,0.1-0.8,0-0.8
		C146.2,165.4,146.1,165.7,146,166 M131,166c0.1,0.1,1.1,0.2,2.3,0.1l2.1-0.1l-2.3-0.1C131.8,165.8,130.8,165.8,131,166
		 M102.1,166.9c-0.6,0.2-0.6,0.2,0.3,0.5c0.5,0.2,1.8,0.6,2.9,1c1.1,0.4,2.1,0.6,2.3,0.6c0.2,0-0.2-0.2-0.9-0.4
		c-1.5-0.4-3.5-1.3-3.5-1.7C103.1,166.6,103,166.6,102.1,166.9 M147.3,167.6l-0.8,0.4l0.8-0.2c0.4-0.1,0.9-0.3,1-0.4
		C148.7,167.1,148.2,167.2,147.3,167.6 M269,168c-0.3,0.5-0.9,1.3-1.2,1.9c-0.3,0.6-0.8,1.2-1.1,1.4c-0.3,0.2-0.5,0.5-0.5,0.7
		c0,0.2-0.2,0.6-0.5,1c-0.9,1.1-1.8,2.6-1.7,2.8c0.2,0.2,4.4-5.9,5.7-8.2C270,166.9,269.6,167.2,269,168 M98.8,168.5
		c-0.9,0.6-1.2,0.9-0.4,0.5c0.6-0.3,1.5-1.1,1.4-1.1C99.7,168,99.2,168.2,98.8,168.5 M112.9,170.7c0.4,0.2,0.9,0.4,1,0.4
		c0.4,0-0.9-0.8-1.4-0.8C112.3,170.3,112.4,170.5,112.9,170.7 M248.6,171.8l-0.7,1l0.9-0.8c0.5-0.5,0.8-0.9,0.7-1
		S249,171.3,248.6,171.8 M118.2,172.6c0.5,0.3,1.3,0.6,1.8,0.7c0.8,0.1,0.7,0.1-0.4-0.4C117.8,172.2,117.2,172,118.2,172.6
		 M92.4,173.4l-0.9,1l0.9-0.8c0.5-0.4,1-0.9,1.2-1c0.2-0.1,0.1-0.2,0-0.2C93.4,172.4,92.9,172.8,92.4,173.4 M197.5,173.1
		c0.7,0.1,1.7,0.1,2.3,0c0.6-0.1,0-0.1-1.2-0.1C197.3,173,196.8,173.1,197.5,173.1 M246.6,174.5c-0.7,1-0.8,1.3-0.3,0.8
		c0.8-0.9,1.7-2.4,1.5-2.4C247.8,172.9,247.2,173.6,246.6,174.5 M121.9,173.8c0,0.2,2.9,1,3,0.9c0.1-0.1-0.4-0.2-1-0.4
		c-0.6-0.2-1.3-0.4-1.6-0.4C122.1,173.7,121.9,173.7,121.9,173.8 M262.7,177.1c-1.5,1.8-2.3,3.1-2.2,3.1c0.1,0,0.8-0.9,1.7-2.1
		C263.9,175.9,264.2,175.3,262.7,177.1 M244.9,177c-0.3,0.4-0.9,1.3-1.5,2c-0.6,0.8-0.7,1-0.2,0.5c0.4-0.5,0.8-0.8,0.9-0.7
		c0.1,0.1,0.4-0.5,0.8-1.2C245.6,176.2,245.7,175.9,244.9,177 M133.2,177.3c0.1,0.2-0.2,0.7-0.7,1.3c-1.5,1.6-1.2,3.3,1.2,6
		c0.9,1,1.2,1.7,0.6,1.5c-0.4-0.1-0.4-0.1-0.1,0.1c0.3,0.2,0.2,0.3-0.5,0.6c-0.5,0.2-0.8,0.4-0.7,0.4c0.1,0.1,0.5-0.1,1-0.3
		c0.5-0.2,1.1-0.4,1.3-0.4c0.4,0,0.3-0.2-0.6-1.3c-3.1-3.7-3.5-5-1.9-6.5c1-0.8,1.1-1.2,0.6-1.5
		C133.1,177.1,133.1,177.1,133.2,177.3 M259.1,181.8c-0.6,0.7-1.8,2-2.5,2.8c-1.5,1.6-2.6,3-2.2,2.9c0.4-0.1,6.2-7,6-7
		C260.3,180.5,259.7,181.1,259.1,181.8 M239.4,183.9c-1.1,1.3-2.3,2.7-2.6,3c-0.3,0.4-0.4,0.5-0.2,0.4c0.2-0.1,1-1,1.8-2
		c0.8-1,1.6-1.8,1.8-1.8c0.2,0,0.4-0.2,0.4-0.4c0-0.2,0.3-0.7,0.6-1c0.3-0.3,0.5-0.6,0.4-0.6S240.5,182.6,239.4,183.9 M142.6,184.3
		c-0.7,0.3-0.7,0.4-0.1,0.2c0.7-0.2,1.6-0.6,1.2-0.6C143.5,183.9,143,184,142.6,184.3 M235.2,189c-0.8,1.1-4.5,5.4-5.7,6.6
		c-0.2,0.2-0.7,0.8-1.2,1.3c-0.4,0.5,0.1,0.1,1.2-1c1.1-1,2.3-2.1,2.7-2.4c0.4-0.3,0.7-0.7,0.7-0.9c0-0.2,0.5-0.8,1-1.4
		c0.6-0.6,1-1.1,1-1.2c0-0.1,0.3-0.5,0.7-0.9c0.4-0.4,0.6-0.8,0.6-1C236.1,187.9,235.7,188.3,235.2,189 M252.9,188.9
		c-0.6,0.6-1,1.2-0.9,1.1c0.2,0,2.4-2.3,2.2-2.3C254.1,187.8,253.5,188.3,252.9,188.9 M319.4,190.1c0,1.1,0,1.5,0.1,1
		c0.1-0.5,0.1-1.4,0-2C319.4,188.6,319.4,189,319.4,190.1 M250.4,191.6c-2,1.9-4.8,4.6-4.8,4.6c0,0-1,1.1-2.2,2.4
		c-3,3.1-2.8,3.1,0.3,0.1C249.8,192.6,254.2,188,250.4,191.6 M80.3,196c0,1.3,0,1.8,0.1,1.2c0.1-0.6,0.1-1.7,0-2.3
		C80.3,194.2,80.3,194.7,80.3,196 M142,196.5c0.3,0.1,0.7,0.1,0.9,0c0.2-0.1,0-0.1-0.5-0.1C141.9,196.4,141.7,196.5,142,196.5
		 M226,199.4c-1.2,1.2-2.5,2.9-1.8,2.1c0.9-0.8,3.2-3.4,3.1-3.4C227.2,198.2,226.7,198.7,226,199.4 M253.5,205.8l-4.9,5L253.5,205.8
		c2.8-2.7,5.1-4.9,5.1-4.9C258.6,200.7,258.1,201.1,253.5,205.8 M239.2,202.5c-8,7.6-8.3,8-1.6,1.8c2-1.9,3.5-3.3,3.2-3.3
		C240.8,201,240,201.7,239.2,202.5 M221.2,204.8c-4.1,4.2-9.1,9.6-9.2,9.8c-0.1,0.4,2.5-2.2,3.3-3.3c0.9-1.1,4.2-4.6,5.2-5.5
		c1.3-1.1,3.6-3.8,3.3-3.8C223.8,202.1,222.6,203.3,221.2,204.8 M107.2,206.8l-1.6,1.6L107.2,206.8c1.6-1.4,1.8-1.6,1.6-1.6
		C108.7,205.2,108,205.9,107.2,206.8 M160.5,210.8c0,0.7,0.1,1,0.1,0.6c0.1-0.4,0.1-1,0-1.3C160.5,209.8,160.5,210.1,160.5,210.8
		 M230.3,210.7l-0.8,0.8L230.3,210.7c0.5-0.3,0.9-0.7,0.9-0.8C231.2,209.8,231,210,230.3,210.7 M96,211.9c-0.1,0.2-0.1,1.1-0.1,2
		l0,1.6l0.2-2C96.3,211.5,96.3,211.1,96,211.9 M246,213.1l-1.3,1.4L246,213.1c0.8-0.6,1.4-1.3,1.4-1.3
		C247.4,211.6,247.2,211.8,246,213.1 M227.4,213.2c-0.5,0.4-1.2,1-1.6,1.3s-0.6,0.6-0.5,0.6c0.1,0,0.9-0.6,1.7-1.3
		C228.6,212.4,228.8,212,227.4,213.2 M242.7,216.1l-1.4,1.5L242.7,216.1c1.5-1.2,1.7-1.5,1.5-1.5
		C244.2,214.6,243.5,215.3,242.7,216.1 M209.1,217.6c-1.4,1.5-3.8,4.1-5.3,5.8c-4.1,4.4-7,7.9-6.4,7.5c0.3-0.2,0.5-0.4,0.5-0.6
		c0-0.1,0.1-0.1,0.3-0.1c0.1,0.1,0.3-0.1,0.4-0.5c0.1-0.4,0.8-1.2,1.6-2c0.8-0.7,1.4-1.4,1.4-1.6c0-0.1,0.1-0.3,0.3-0.4
		c0.2-0.1,0.5-0.5,0.8-0.9c0.2-0.4,1.7-2,3.2-3.6c2.7-2.8,4.2-4.4,5.3-5.9C212.3,214.2,211.5,214.9,209.1,217.6 M222.1,217.9
		c-1.1,0.9-2,1.8-2,1.8c0,0.1,0.9-0.7,2.1-1.6c1.9-1.6,2.2-1.9,2-1.9C224.1,216.1,223.2,216.9,222.1,217.9 M89.8,217.5
		c1.1,1.1,1.3,1.4,1.3,1.2C91.1,218.6,90.6,218.1,89.8,217.5l-1.2-1.2L89.8,217.5 M217.1,222.1c-0.7,0.7-1.1,1-0.8,0.8
		c0.9-0.6,2.5-2.1,2.3-2.1C218.4,220.8,217.8,221.4,217.1,222.1 M96.4,223.5c0,0,0.4,0.4,0.8,0.7c0.5,0.4,0.7,0.4,0.5,0.2
		C97.3,224,96.4,223.3,96.4,223.5 M211.8,226.5c-1.6,1.5-1.7,1.7-0.5,0.7c1.5-1.3,2.9-2.7,2.7-2.7C214,224.5,213,225.4,211.8,226.5
		 M232.3,225.5l-0.9,1L232.3,225.5c1-0.8,1.2-1,1-1C233.2,224.5,232.8,224.9,232.3,225.5 M228.5,228.7l-0.8,0.8L228.5,228.7
		c0.5-0.3,0.9-0.7,0.9-0.8C229.4,227.7,229.2,227.9,228.5,228.7 M208.6,229.1c-0.4,0.2-0.9,0.6-1.2,0.9c-0.3,0.3-0.6,0.5-0.7,0.5
		c-0.3,0-1.1,0.8-0.8,0.8c0.1,0,0,0.1-0.2,0.3c-0.3,0.1-0.5,0.4-0.5,0.5c0,0.2,0.8-0.4,3.3-2.6C209.6,228.6,209.6,228.4,208.6,229.1
		 M225.1,231.6l-0.8,0.8L225.1,231.6c0.5-0.3,0.9-0.7,0.9-0.8C226,230.6,225.8,230.8,225.1,231.6 M203.2,233.8
		c-0.9,0.8-2.7,2.5-3.9,3.7l-2.3,2.2l2.5-2.2c3-2.7,5.7-5.2,5.5-5.2C204.9,232.3,204.1,233,203.2,233.8 M194.1,234.4
		c-1.2,1.3-1.8,2-1.6,2c0.1,0,0.7-0.6,1.4-1.4C195.2,233.5,195.4,233.1,194.1,234.4 M221.5,234.7l-0.8,0.8L221.5,234.7
		c0.5-0.3,0.9-0.7,0.9-0.8C222.4,233.7,222.2,233.9,221.5,234.7 M190.4,238.9c-2.5,3-2.5,3.1-2.2,3.1c0.1,0,0.4-0.3,0.6-0.7
		c0.2-0.4,0.4-0.6,0.5-0.5c0.2,0.2,0.9-0.5,0.9-0.9c0-0.4,1.9-2.6,2.3-2.6c0.2,0,0.3-0.1,0.3-0.3
		C192.7,236.4,192.1,236.9,190.4,238.9 M218.1,237.6l-0.8,0.8L218.1,237.6c0.5-0.3,0.9-0.7,0.9-0.8
		C219,236.6,218.8,236.8,218.1,237.6 M194.7,241.4c-0.9,0.8-2,1.9-2.5,2.3c-1.2,1-3.4,3.2-4.5,4.4c-0.5,0.6,0.2,0,1.6-1.3
		c1.4-1.3,3.6-3.4,4.9-4.6c1.3-1.3,2.4-2.3,2.3-2.3C196.4,239.8,195.6,240.5,194.7,241.4 M186.2,244.1c-2.6,3.3-2.4,3.4,0.4,0.1
		c1.2-1.5,1.5-2,1.2-1.9C187.7,242.2,187,243,186.2,244.1 M206.9,247.2l-0.8,0.8L206.9,247.2c0.5-0.3,0.9-0.7,0.9-0.8
		C207.8,246.2,207.6,246.4,206.9,247.2 M183.3,248c-0.3,0.5-1.5,2.1-2.6,3.6c-1.1,1.5-2,2.8-1.9,2.9s0.2,0.1,0.2,0
		c0.3-0.4,4.1-5.7,4.5-6.4C184.3,246.9,184.1,246.9,183.3,248 M186.1,249.5c-0.3,0.3-0.6,0.5-0.8,0.5s-1.3,1-2.6,2.2
		c-1.3,1.2-2.4,2.2-2.5,2.2c-0.1,0-0.3,0.2-0.3,0.5c-0.2,0.6-1.4,1.5-1.6,1.2c-0.1-0.1,0-0.3,0.2-0.5c0.2-0.2,0.3-0.5,0.3-0.7
		c0-0.7-1,0.7-1,1.4c0,1.1,1.1,0.4,4.6-3c1.9-1.8,3.7-3.5,4-3.7c0.3-0.2,0.6-0.5,0.5-0.6C186.6,249,186.3,249.2,186.1,249.5
		 M202.2,251.4l-0.8,0.8L202.2,251.4c0.5-0.3,0.9-0.7,0.9-0.8C203.1,250.4,202.9,250.6,202.2,251.4 M197.6,255.4l-0.9,1L197.6,255.4
		c1-0.8,1.2-1,1-1C198.6,254.4,198.1,254.9,197.6,255.4 M192.4,260.1l-1.4,1.5L192.4,260.1c1.5-1.2,1.7-1.5,1.5-1.5
		C193.9,258.6,193.2,259.3,192.4,260.1 M188.5,263.7l-1.4,1.5L188.5,263.7c1.5-1.2,1.7-1.5,1.5-1.5
		C190,262.2,189.3,262.9,188.5,263.7 M182.8,269.2l-2.7,2.8L182.8,269.2c1.6-1.4,2.9-2.7,2.9-2.7
		C185.7,266.3,185.3,266.6,182.8,269.2 M288.3,271.5l-0.9,1L288.3,271.5c1-0.8,1.2-1,1-1C289.2,270.6,288.8,271,288.3,271.5
		 M175.9,276.4c-1.9,1.9-3.9,4-4.4,4.6l-1,1.2l1.1-1c2.2-2.2,8-8.2,7.9-8.2C179.3,272.9,177.8,274.5,175.9,276.4 M282.3,277.5
		l-0.9,1L282.3,277.5c0.6-0.4,1.1-0.9,1.1-0.9C283.3,276.4,283.1,276.6,282.3,277.5 M148.2,342.1l-0.9,1L148.2,342.1
		c1-0.8,1.2-1,1-1C149.1,341.1,148.7,341.6,148.2,342.1 M130,343c0,0.5,0.1,0.7,0.1,0.5c0.1-0.2,0.1-0.7,0-0.9
		C130.1,342.3,130,342.5,130,343 M131.1,348.7c0,0.6,0,0.9,0.1,0.6c0.1-0.3,0.1-0.9,0-1.2C131.1,347.8,131.1,348.1,131.1,348.7"/>
</g>
</svg>
